solid OpenSCAD_Model
  facet normal 0 -0.608764 0.793351
    outer loop
      vertex -1 -1 3.36601
      vertex 1 -1.20711 3.20709
      vertex 1 -1 3.36601
    endloop
  endfacet
  facet normal 0 -0.608764 0.793351
    outer loop
      vertex 1 -1.20711 3.20709
      vertex -1 -1 3.36601
      vertex -1 -1.20711 3.20709
    endloop
  endfacet
  facet normal 0 -0.130578 0.991438
    outer loop
      vertex -1 -0.5 3.5
      vertex 1 -0.75882 3.46591
      vertex 1 -0.5 3.5
    endloop
  endfacet
  facet normal 0 -0.130578 0.991438
    outer loop
      vertex 1 -0.75882 3.46591
      vertex -1 -0.5 3.5
      vertex -1 -0.75882 3.46591
    endloop
  endfacet
  facet normal 0 -0.38268 0.923881
    outer loop
      vertex -1 -0.75882 3.46591
      vertex 1 -1 3.36601
      vertex 1 -0.75882 3.46591
    endloop
  endfacet
  facet normal 0 -0.38268 0.923881
    outer loop
      vertex 1 -1 3.36601
      vertex -1 -0.75882 3.46591
      vertex -1 -1 3.36601
    endloop
  endfacet
  facet normal -0 0.38266 0.923889
    outer loop
      vertex -1 5 3.36601
      vertex 1 4.7588 3.46591
      vertex 1 5 3.36601
    endloop
  endfacet
  facet normal 0 0.38266 0.923889
    outer loop
      vertex 1 4.7588 3.46591
      vertex -1 5 3.36601
      vertex -1 4.7588 3.46591
    endloop
  endfacet
  facet normal -1 0 0
    outer loop
      vertex -1 -1.5 -0.5
      vertex -1 0.5 -0.5
      vertex -1 0.465912 -0.75882
    endloop
  endfacet
  facet normal -1 0 0
    outer loop
      vertex -1 4.5 -5.5
      vertex -1 5.5 -4.5
      vertex -1 5.46591 -4.75882
    endloop
  endfacet
  facet normal -1 0 0
    outer loop
      vertex -1 5.5 -4.5
      vertex -1 3.5 -3.5
      vertex -1 5.5 2.5
    endloop
  endfacet
  facet normal -1 0 0
    outer loop
      vertex -1 4.5 -5.5
      vertex -1 5.46591 -4.75882
      vertex -1 5.36601 -5
    endloop
  endfacet
  facet normal -1 0 0
    outer loop
      vertex -1 3.5 1.5
      vertex -1 5.5 2.5
      vertex -1 3.5 -3.5
    endloop
  endfacet
  facet normal -1 0 0
    outer loop
      vertex -1 4.5 -5.5
      vertex -1 5.36601 -5
      vertex -1 5.20709 -5.20711
    endloop
  endfacet
  facet normal -1 0 -0
    outer loop
      vertex -1 4.5 3.5
      vertex -1 5.5 2.5
      vertex -1 3.5 1.5
    endloop
  endfacet
  facet normal -1 0 0
    outer loop
      vertex -1 4.5 -5.5
      vertex -1 5.20709 -5.20711
      vertex -1 5 -5.36603
    endloop
  endfacet
  facet normal -1 0 0
    outer loop
      vertex -1 5.5 2.5
      vertex -1 4.5 3.5
      vertex -1 5.46591 2.7588
    endloop
  endfacet
  facet normal -1 0 0
    outer loop
      vertex -1 4.5 -5.5
      vertex -1 5 -5.36603
      vertex -1 4.7588 -5.46593
    endloop
  endfacet
  facet normal -1 0 0
    outer loop
      vertex -1 5.46591 2.7588
      vertex -1 4.5 3.5
      vertex -1 5.36601 3
    endloop
  endfacet
  facet normal -1 -0 0
    outer loop
      vertex -1 5.5 -4.5
      vertex -1 4.5 -5.5
      vertex -1 3.5 -3.5
    endloop
  endfacet
  facet normal -1 0 0
    outer loop
      vertex -1 5.36601 3
      vertex -1 4.5 3.5
      vertex -1 5.20709 3.20709
    endloop
  endfacet
  facet normal -1 0 0
    outer loop
      vertex -1 5.20709 3.20709
      vertex -1 4.5 3.5
      vertex -1 5 3.36601
    endloop
  endfacet
  facet normal -1 0 0
    outer loop
      vertex -1 4.5 -5.5
      vertex -1 -3.5 -3.5
      vertex -1 3.5 -3.5
    endloop
  endfacet
  facet normal -1 0 0
    outer loop
      vertex -1 -5.5 -4.5
      vertex -1 -3.5 -3.5
      vertex -1 -4.5 -5.5
    endloop
  endfacet
  facet normal -1 0 0
    outer loop
      vertex -1 -4.5 -5.5
      vertex -1 -3.5 -3.5
      vertex -1 4.5 -5.5
    endloop
  endfacet
  facet normal -1 0 0
    outer loop
      vertex -1 5 3.36601
      vertex -1 4.5 3.5
      vertex -1 4.7588 3.46591
    endloop
  endfacet
  facet normal -1 0 0
    outer loop
      vertex -1 0.5 1.5
      vertex -1 4.5 3.5
      vertex -1 3.5 1.5
    endloop
  endfacet
  facet normal -1 0 0
    outer loop
      vertex -1 -1.5 -0.5
      vertex -1 0.465912 -0.75882
      vertex -1 0.366013 -1
    endloop
  endfacet
  facet normal -1 0 0
    outer loop
      vertex -1 -1.5 -0.5
      vertex -1 0.366013 -1
      vertex -1 0.207092 -1.20711
    endloop
  endfacet
  facet normal -1 0 0
    outer loop
      vertex -1 -1.5 -0.5
      vertex -1 0.207092 -1.20711
      vertex -1 0 -1.36603
    endloop
  endfacet
  facet normal -1 0 0
    outer loop
      vertex -1 -1.5 -0.5
      vertex -1 0 -1.36603
      vertex -1 -0.241196 -1.46593
    endloop
  endfacet
  facet normal -1 0 0
    outer loop
      vertex -1 -1.5 -0.5
      vertex -1 -0.241196 -1.46593
      vertex -1 -0.5 -1.5
    endloop
  endfacet
  facet normal -1 0 0
    outer loop
      vertex -1 0.5 1.5
      vertex -1 -0.5 3.5
      vertex -1 4.5 3.5
    endloop
  endfacet
  facet normal -1 0 0
    outer loop
      vertex -1 0.5 -0.5
      vertex -1 -1.5 -0.5
      vertex -1 0.5 1.5
    endloop
  endfacet
  facet normal -1 0 0
    outer loop
      vertex -1 -1.5 -0.5
      vertex -1 -0.5 -1.5
      vertex -1 -0.75882 -1.46593
    endloop
  endfacet
  facet normal -1 0 0
    outer loop
      vertex -1 -1.5 2.5
      vertex -1 0.5 1.5
      vertex -1 -1.5 -0.5
    endloop
  endfacet
  facet normal -1 0 0
    outer loop
      vertex -1 -1.5 -0.5
      vertex -1 -0.75882 -1.46593
      vertex -1 -1 -1.36603
    endloop
  endfacet
  facet normal -1 0 0
    outer loop
      vertex -1 0.5 1.5
      vertex -1 -1.5 2.5
      vertex -1 -0.5 3.5
    endloop
  endfacet
  facet normal -1 0 0
    outer loop
      vertex -1 -1.5 -0.5
      vertex -1 -1 -1.36603
      vertex -1 -1.20711 -1.20711
    endloop
  endfacet
  facet normal -1 0 0
    outer loop
      vertex -1 -0.5 3.5
      vertex -1 -1.5 2.5
      vertex -1 -0.75882 3.46591
    endloop
  endfacet
  facet normal -1 0 0
    outer loop
      vertex -1 -1.5 -0.5
      vertex -1 -1.20711 -1.20711
      vertex -1 -1.36603 -1
    endloop
  endfacet
  facet normal -1 0 0
    outer loop
      vertex -1 -0.75882 3.46591
      vertex -1 -1.5 2.5
      vertex -1 -1 3.36601
    endloop
  endfacet
  facet normal -1 0 0
    outer loop
      vertex -1 -1.5 -0.5
      vertex -1 -1.36603 -1
      vertex -1 -1.46593 -0.75882
    endloop
  endfacet
  facet normal -1 0 0
    outer loop
      vertex -1 -1 3.36601
      vertex -1 -1.5 2.5
      vertex -1 -1.20711 3.20709
    endloop
  endfacet
  facet normal -1 0 0
    outer loop
      vertex -1 -1.20711 3.20709
      vertex -1 -1.5 2.5
      vertex -1 -1.36603 3
    endloop
  endfacet
  facet normal -1 0 0
    outer loop
      vertex -1 -1.36603 3
      vertex -1 -1.5 2.5
      vertex -1 -1.46593 2.7588
    endloop
  endfacet
  facet normal -1 0 0
    outer loop
      vertex -1 8.5 -9.5
      vertex -1 9.5 -8.5
      vertex -1 9.46591 -8.75882
    endloop
  endfacet
  facet normal -1 0 0
    outer loop
      vertex -1 9.5 -8.5
      vertex -1 7.5 -7.5
      vertex -1 9.5 6.5
    endloop
  endfacet
  facet normal -1 0 0
    outer loop
      vertex -1 8.5 -9.5
      vertex -1 9.46591 -8.75882
      vertex -1 9.36601 -9
    endloop
  endfacet
  facet normal -1 0 0
    outer loop
      vertex -1 7.5 5.5
      vertex -1 9.5 6.5
      vertex -1 7.5 -7.5
    endloop
  endfacet
  facet normal -1 0 0
    outer loop
      vertex -1 8.5 -9.5
      vertex -1 9.36601 -9
      vertex -1 9.20709 -9.20711
    endloop
  endfacet
  facet normal -1 0 -0
    outer loop
      vertex -1 8.5 7.5
      vertex -1 9.5 6.5
      vertex -1 7.5 5.5
    endloop
  endfacet
  facet normal -1 0 0
    outer loop
      vertex -1 8.5 -9.5
      vertex -1 9.20709 -9.20711
      vertex -1 9 -9.36603
    endloop
  endfacet
  facet normal -1 0 0
    outer loop
      vertex -1 9.5 6.5
      vertex -1 8.5 7.5
      vertex -1 9.46591 6.7588
    endloop
  endfacet
  facet normal -1 0 0
    outer loop
      vertex -1 8.5 -9.5
      vertex -1 9 -9.36603
      vertex -1 8.7588 -9.46593
    endloop
  endfacet
  facet normal -1 0 0
    outer loop
      vertex -1 9.46591 6.7588
      vertex -1 8.5 7.5
      vertex -1 9.36601 7
    endloop
  endfacet
  facet normal -1 -0 0
    outer loop
      vertex -1 9.5 -8.5
      vertex -1 8.5 -9.5
      vertex -1 7.5 -7.5
    endloop
  endfacet
  facet normal -1 0 0
    outer loop
      vertex -1 9.36601 7
      vertex -1 8.5 7.5
      vertex -1 9.20709 7.20709
    endloop
  endfacet
  facet normal -1 0 0
    outer loop
      vertex -1 9.20709 7.20709
      vertex -1 8.5 7.5
      vertex -1 9 7.36601
    endloop
  endfacet
  facet normal -1 0 0
    outer loop
      vertex -1 8.5 -9.5
      vertex -1 -7.5 -7.5
      vertex -1 7.5 -7.5
    endloop
  endfacet
  facet normal -1 0 0
    outer loop
      vertex -1 -9.5 -8.5
      vertex -1 -7.5 -7.5
      vertex -1 -8.5 -9.5
    endloop
  endfacet
  facet normal -1 0 0
    outer loop
      vertex -1 -8.5 -9.5
      vertex -1 -7.5 -7.5
      vertex -1 8.5 -9.5
    endloop
  endfacet
  facet normal -1 0 0
    outer loop
      vertex -1 9 7.36601
      vertex -1 8.5 7.5
      vertex -1 8.7588 7.46591
    endloop
  endfacet
  facet normal -1 0 0
    outer loop
      vertex -1 -3.5 5.5
      vertex -1 8.5 7.5
      vertex -1 7.5 5.5
    endloop
  endfacet
  facet normal -1 0 0
    outer loop
      vertex -1 -3.5 5.5
      vertex -1 -4.5 7.5
      vertex -1 8.5 7.5
    endloop
  endfacet
  facet normal -1 -0 0
    outer loop
      vertex -1 -3.5 -3.5
      vertex -1 -5.5 -4.5
      vertex -1 -3.5 5.5
    endloop
  endfacet
  facet normal -1 0 0
    outer loop
      vertex -1 -5.5 -4.5
      vertex -1 -4.5 -5.5
      vertex -1 -4.75882 -5.46593
    endloop
  endfacet
  facet normal -1 0 0
    outer loop
      vertex -1 -5.5 6.5
      vertex -1 -3.5 5.5
      vertex -1 -5.5 -4.5
    endloop
  endfacet
  facet normal -1 0 0
    outer loop
      vertex -1 -5.5 -4.5
      vertex -1 -4.75882 -5.46593
      vertex -1 -5 -5.36603
    endloop
  endfacet
  facet normal -1 0 0
    outer loop
      vertex -1 -3.5 5.5
      vertex -1 -5.5 6.5
      vertex -1 -4.5 7.5
    endloop
  endfacet
  facet normal -1 0 0
    outer loop
      vertex -1 -5.5 -4.5
      vertex -1 -5 -5.36603
      vertex -1 -5.20711 -5.20711
    endloop
  endfacet
  facet normal -1 0 0
    outer loop
      vertex -1 -4.5 7.5
      vertex -1 -5.5 6.5
      vertex -1 -4.75882 7.46591
    endloop
  endfacet
  facet normal -1 0 0
    outer loop
      vertex -1 -5.5 -4.5
      vertex -1 -5.20711 -5.20711
      vertex -1 -5.36603 -5
    endloop
  endfacet
  facet normal -1 0 0
    outer loop
      vertex -1 -4.75882 7.46591
      vertex -1 -5.5 6.5
      vertex -1 -5 7.36601
    endloop
  endfacet
  facet normal -1 0 0
    outer loop
      vertex -1 -5.5 -4.5
      vertex -1 -5.36603 -5
      vertex -1 -5.46593 -4.75882
    endloop
  endfacet
  facet normal -1 0 0
    outer loop
      vertex -1 -5 7.36601
      vertex -1 -5.5 6.5
      vertex -1 -5.20711 7.20709
    endloop
  endfacet
  facet normal -1 0 0
    outer loop
      vertex -1 -5.20711 7.20709
      vertex -1 -5.5 6.5
      vertex -1 -5.36603 7
    endloop
  endfacet
  facet normal -1 0 0
    outer loop
      vertex -1 -5.36603 7
      vertex -1 -5.5 6.5
      vertex -1 -5.46593 6.7588
    endloop
  endfacet
  facet normal -1 0 0
    outer loop
      vertex -1 12.5 -13.5
      vertex -1 13.5 -12.5
      vertex -1 13.4659 -12.7588
    endloop
  endfacet
  facet normal -1 0 0
    outer loop
      vertex -1 13.5 -12.5
      vertex -1 11.5 -11.5
      vertex -1 13.5 10.5
    endloop
  endfacet
  facet normal -1 0 0
    outer loop
      vertex -1 12.5 -13.5
      vertex -1 13.4659 -12.7588
      vertex -1 13.366 -13
    endloop
  endfacet
  facet normal -1 0 0
    outer loop
      vertex -1 11.5 9.5
      vertex -1 13.5 10.5
      vertex -1 11.5 -11.5
    endloop
  endfacet
  facet normal -1 0 0
    outer loop
      vertex -1 12.5 -13.5
      vertex -1 13.366 -13
      vertex -1 13.2071 -13.2071
    endloop
  endfacet
  facet normal -1 0 -0
    outer loop
      vertex -1 12.5 11.5
      vertex -1 13.5 10.5
      vertex -1 11.5 9.5
    endloop
  endfacet
  facet normal -1 0 0
    outer loop
      vertex -1 12.5 -13.5
      vertex -1 13.2071 -13.2071
      vertex -1 13 -13.366
    endloop
  endfacet
  facet normal -1 0 0
    outer loop
      vertex -1 13.5 10.5
      vertex -1 12.5 11.5
      vertex -1 13.4659 10.7588
    endloop
  endfacet
  facet normal -1 0 0
    outer loop
      vertex -1 12.5 -13.5
      vertex -1 13 -13.366
      vertex -1 12.7588 -13.4659
    endloop
  endfacet
  facet normal -1 0 0
    outer loop
      vertex -1 13.4659 10.7588
      vertex -1 12.5 11.5
      vertex -1 13.366 11
    endloop
  endfacet
  facet normal -1 -0 0
    outer loop
      vertex -1 13.5 -12.5
      vertex -1 12.5 -13.5
      vertex -1 11.5 -11.5
    endloop
  endfacet
  facet normal -1 0 0
    outer loop
      vertex -1 13.366 11
      vertex -1 12.5 11.5
      vertex -1 13.2071 11.2071
    endloop
  endfacet
  facet normal -1 0 0
    outer loop
      vertex -1 13.2071 11.2071
      vertex -1 12.5 11.5
      vertex -1 13 11.366
    endloop
  endfacet
  facet normal -1 0 0
    outer loop
      vertex -1 -12.5 -13.5
      vertex -1 11.5 -11.5
      vertex -1 12.5 -13.5
    endloop
  endfacet
  facet normal -1 0 0
    outer loop
      vertex -1 -12.5 -13.5
      vertex -1 -12.5 -11.5
      vertex -1 11.5 -11.5
    endloop
  endfacet
  facet normal -1 0 0
    outer loop
      vertex -1 -12.7588 -13.4659
      vertex -1 -12.5 -11.5
      vertex -1 -12.5 -13.5
    endloop
  endfacet
  facet normal -1 0 0
    outer loop
      vertex -1 -12.7588 -13.4659
      vertex -1 -12.7588 -11.5341
      vertex -1 -12.5 -11.5
    endloop
  endfacet
  facet normal -1 0 0
    outer loop
      vertex -1 -12.7588 -13.4659
      vertex -1 -13 -11.634
      vertex -1 -12.7588 -11.5341
    endloop
  endfacet
  facet normal -1 0 0
    outer loop
      vertex -1 -13 -13.366
      vertex -1 -13 -11.634
      vertex -1 -12.7588 -13.4659
    endloop
  endfacet
  facet normal -1 0 0
    outer loop
      vertex -1 -13.2071 -13.2071
      vertex -1 -13 -11.634
      vertex -1 -13 -13.366
    endloop
  endfacet
  facet normal -1 0 0
    outer loop
      vertex -1 -13.2071 -13.2071
      vertex -1 -13.2071 -11.7929
      vertex -1 -13 -11.634
    endloop
  endfacet
  facet normal -1 0 0
    outer loop
      vertex -1 -13.366 -13
      vertex -1 -13.2071 -11.7929
      vertex -1 -13.2071 -13.2071
    endloop
  endfacet
  facet normal -1 0 0
    outer loop
      vertex -1 -13.366 -13
      vertex -1 -13.366 -12
      vertex -1 -13.2071 -11.7929
    endloop
  endfacet
  facet normal -1 0 0
    outer loop
      vertex -1 -13.4659 -12.7588
      vertex -1 -13.366 -12
      vertex -1 -13.366 -13
    endloop
  endfacet
  facet normal -1 0 0
    outer loop
      vertex -1 -13.4659 -12.7588
      vertex -1 -13.4659 -12.2412
      vertex -1 -13.366 -12
    endloop
  endfacet
  facet normal -1 0 -0
    outer loop
      vertex -1 -13.4659 -12.2412
      vertex -1 -13.4659 -12.7588
      vertex -1 -13.5 -12.5
    endloop
  endfacet
  facet normal -1 0 0
    outer loop
      vertex -1 13 11.366
      vertex -1 12.5 11.5
      vertex -1 12.7588 11.4659
    endloop
  endfacet
  facet normal -1 0 0
    outer loop
      vertex -1 -7.5 9.5
      vertex -1 12.5 11.5
      vertex -1 11.5 9.5
    endloop
  endfacet
  facet normal -1 0 0
    outer loop
      vertex -1 -7.5 9.5
      vertex -1 -8.5 11.5
      vertex -1 12.5 11.5
    endloop
  endfacet
  facet normal -1 -0 0
    outer loop
      vertex -1 -7.5 -7.5
      vertex -1 -9.5 -8.5
      vertex -1 -7.5 9.5
    endloop
  endfacet
  facet normal -1 0 0
    outer loop
      vertex -1 -9.5 -8.5
      vertex -1 -8.5 -9.5
      vertex -1 -8.75882 -9.46593
    endloop
  endfacet
  facet normal -1 0 0
    outer loop
      vertex -1 -9.5 10.5
      vertex -1 -7.5 9.5
      vertex -1 -9.5 -8.5
    endloop
  endfacet
  facet normal -1 0 0
    outer loop
      vertex -1 -8.5 11.5
      vertex -1 -9.5 10.5
      vertex -1 -8.75882 11.4659
    endloop
  endfacet
  facet normal -1 0 0
    outer loop
      vertex -1 -9.5 -8.5
      vertex -1 -8.75882 -9.46593
      vertex -1 -9.00002 -9.36603
    endloop
  endfacet
  facet normal -1 0 0
    outer loop
      vertex -1 -9.5 -8.5
      vertex -1 -9.00002 -9.36603
      vertex -1 -9.20711 -9.20711
    endloop
  endfacet
  facet normal -1 0 0
    outer loop
      vertex -1 -7.5 9.5
      vertex -1 -9.5 10.5
      vertex -1 -8.5 11.5
    endloop
  endfacet
  facet normal -1 0 0
    outer loop
      vertex -1 -9.5 -8.5
      vertex -1 -9.20711 -9.20711
      vertex -1 -9.36603 -9
    endloop
  endfacet
  facet normal -1 0 0
    outer loop
      vertex -1 -8.75882 11.4659
      vertex -1 -9.5 10.5
      vertex -1 -9 11.366
    endloop
  endfacet
  facet normal -1 0 0
    outer loop
      vertex -1 -9.5 -8.5
      vertex -1 -9.36603 -9
      vertex -1 -9.46593 -8.75882
    endloop
  endfacet
  facet normal -1 0 0
    outer loop
      vertex -1 -9 11.366
      vertex -1 -9.5 10.5
      vertex -1 -9.20711 11.2071
    endloop
  endfacet
  facet normal -1 0 0
    outer loop
      vertex -1 -9.20711 11.2071
      vertex -1 -9.5 10.5
      vertex -1 -9.36603 11
    endloop
  endfacet
  facet normal -1 0 0
    outer loop
      vertex -1 -9.36603 11
      vertex -1 -9.5 10.5
      vertex -1 -9.46593 10.7588
    endloop
  endfacet
  facet normal -0 0.130586 0.991437
    outer loop
      vertex -1 4.7588 3.46591
      vertex 1 4.5 3.5
      vertex 1 4.7588 3.46591
    endloop
  endfacet
  facet normal 0 0.130586 0.991437
    outer loop
      vertex 1 4.5 3.5
      vertex -1 4.7588 3.46591
      vertex -1 4.5 3.5
    endloop
  endfacet
  facet normal -0 0 1
    outer loop
      vertex -1 4.5 3.5
      vertex 1 -0.5 3.5
      vertex 1 4.5 3.5
    endloop
  endfacet
  facet normal 0 0 1
    outer loop
      vertex 1 -0.5 3.5
      vertex -1 4.5 3.5
      vertex -1 -0.5 3.5
    endloop
  endfacet
  facet normal 0 0.923889 0.38266
    outer loop
      vertex 1 5.46591 2.7588
      vertex -1 5.36601 3
      vertex 1 5.36601 3
    endloop
  endfacet
  facet normal 0 0.923889 0.38266
    outer loop
      vertex -1 5.36601 3
      vertex 1 5.46591 2.7588
      vertex -1 5.46591 2.7588
    endloop
  endfacet
  facet normal -0 0.608792 0.79333
    outer loop
      vertex -1 5.20709 3.20709
      vertex 1 5 3.36601
      vertex 1 5.20709 3.20709
    endloop
  endfacet
  facet normal 0 0.608792 0.79333
    outer loop
      vertex 1 5 3.36601
      vertex -1 5.20709 3.20709
      vertex -1 5 3.36601
    endloop
  endfacet
  facet normal 0 0.991437 0.130586
    outer loop
      vertex 1 5.5 2.5
      vertex -1 5.46591 2.7588
      vertex 1 5.46591 2.7588
    endloop
  endfacet
  facet normal 0 0.991437 0.130586
    outer loop
      vertex -1 5.46591 2.7588
      vertex 1 5.5 2.5
      vertex -1 5.5 2.5
    endloop
  endfacet
  facet normal 1 0 0
    outer loop
      vertex 1 12.5 11.5
      vertex 1 13.5 10.5
      vertex 1 13.4659 10.7588
    endloop
  endfacet
  facet normal 1 0 0
    outer loop
      vertex 1 13.5 10.5
      vertex 1 11.5 9.5
      vertex 1 13.5 -12.5
    endloop
  endfacet
  facet normal 1 0 0
    outer loop
      vertex 1 12.5 11.5
      vertex 1 13.4659 10.7588
      vertex 1 13.366 11
    endloop
  endfacet
  facet normal 1 -0 0
    outer loop
      vertex 1 11.5 -11.5
      vertex 1 13.5 -12.5
      vertex 1 11.5 9.5
    endloop
  endfacet
  facet normal 1 0 0
    outer loop
      vertex 1 12.5 11.5
      vertex 1 13.366 11
      vertex 1 13.2071 11.2071
    endloop
  endfacet
  facet normal 1 0 -0
    outer loop
      vertex 1 12.5 -13.5
      vertex 1 13.5 -12.5
      vertex 1 11.5 -11.5
    endloop
  endfacet
  facet normal 1 0 0
    outer loop
      vertex 1 12.5 11.5
      vertex 1 13.2071 11.2071
      vertex 1 13 11.366
    endloop
  endfacet
  facet normal 1 0 0
    outer loop
      vertex 1 13.5 -12.5
      vertex 1 12.5 -13.5
      vertex 1 13.4659 -12.7588
    endloop
  endfacet
  facet normal 1 0 0
    outer loop
      vertex 1 12.5 11.5
      vertex 1 13 11.366
      vertex 1 12.7588 11.4659
    endloop
  endfacet
  facet normal 1 0 0
    outer loop
      vertex 1 13.4659 -12.7588
      vertex 1 12.5 -13.5
      vertex 1 13.366 -13
    endloop
  endfacet
  facet normal 1 0 0
    outer loop
      vertex 1 13.5 10.5
      vertex 1 12.5 11.5
      vertex 1 11.5 9.5
    endloop
  endfacet
  facet normal 1 0 0
    outer loop
      vertex 1 13.366 -13
      vertex 1 12.5 -13.5
      vertex 1 13.2071 -13.2071
    endloop
  endfacet
  facet normal 1 0 0
    outer loop
      vertex 1 13.2071 -13.2071
      vertex 1 12.5 -13.5
      vertex 1 13 -13.366
    endloop
  endfacet
  facet normal 1 0 0
    outer loop
      vertex 1 12.5 11.5
      vertex 1 -7.5 9.5
      vertex 1 11.5 9.5
    endloop
  endfacet
  facet normal 1 -0 0
    outer loop
      vertex 1 -9.5 10.5
      vertex 1 -7.5 9.5
      vertex 1 -8.5 11.5
    endloop
  endfacet
  facet normal 1 -0 0
    outer loop
      vertex 1 -8.5 11.5
      vertex 1 -7.5 9.5
      vertex 1 12.5 11.5
    endloop
  endfacet
  facet normal 1 0 0
    outer loop
      vertex 1 13 -13.366
      vertex 1 12.5 -13.5
      vertex 1 12.7588 -13.4659
    endloop
  endfacet
  facet normal 1 0 0
    outer loop
      vertex 1 -12.5 -13.5
      vertex 1 11.5 -11.5
      vertex 1 -12.5 -11.5
    endloop
  endfacet
  facet normal 1 0 0
    outer loop
      vertex 1 11.5 -11.5
      vertex 1 -12.5 -13.5
      vertex 1 12.5 -13.5
    endloop
  endfacet
  facet normal 1 -0 0
    outer loop
      vertex 1 -12.7588 -11.5341
      vertex 1 -12.5 -13.5
      vertex 1 -12.5 -11.5
    endloop
  endfacet
  facet normal 1 0 0
    outer loop
      vertex 1 -12.7588 -11.5341
      vertex 1 -12.7588 -13.4659
      vertex 1 -12.5 -13.5
    endloop
  endfacet
  facet normal 1 -0 0
    outer loop
      vertex 1 -13 -11.634
      vertex 1 -12.7588 -13.4659
      vertex 1 -12.7588 -11.5341
    endloop
  endfacet
  facet normal 1 0 0
    outer loop
      vertex 1 -13 -11.634
      vertex 1 -13 -13.366
      vertex 1 -12.7588 -13.4659
    endloop
  endfacet
  facet normal 1 -0 0
    outer loop
      vertex 1 -13.2071 -11.7929
      vertex 1 -13 -13.366
      vertex 1 -13 -11.634
    endloop
  endfacet
  facet normal 1 0 0
    outer loop
      vertex 1 -13.2071 -11.7929
      vertex 1 -13.2071 -13.2071
      vertex 1 -13 -13.366
    endloop
  endfacet
  facet normal 1 -0 0
    outer loop
      vertex 1 -13.366 -12
      vertex 1 -13.2071 -13.2071
      vertex 1 -13.2071 -11.7929
    endloop
  endfacet
  facet normal 1 0 0
    outer loop
      vertex 1 -13.366 -12
      vertex 1 -13.366 -13
      vertex 1 -13.2071 -13.2071
    endloop
  endfacet
  facet normal 1 -0 0
    outer loop
      vertex 1 -13.4659 -12.2412
      vertex 1 -13.366 -13
      vertex 1 -13.366 -12
    endloop
  endfacet
  facet normal 1 0 0
    outer loop
      vertex 1 -13.4659 -12.2412
      vertex 1 -13.4659 -12.7588
      vertex 1 -13.366 -13
    endloop
  endfacet
  facet normal 1 0 -0
    outer loop
      vertex 1 -13.4659 -12.7588
      vertex 1 -13.4659 -12.2412
      vertex 1 -13.5 -12.5
    endloop
  endfacet
  facet normal 1 0 0
    outer loop
      vertex 1 8.5 7.5
      vertex 1 9.5 6.5
      vertex 1 9.46591 6.7588
    endloop
  endfacet
  facet normal 1 0 0
    outer loop
      vertex 1 9.5 6.5
      vertex 1 7.5 5.5
      vertex 1 9.5 -8.5
    endloop
  endfacet
  facet normal 1 0 0
    outer loop
      vertex 1 8.5 7.5
      vertex 1 9.46591 6.7588
      vertex 1 9.36601 7
    endloop
  endfacet
  facet normal 1 -0 0
    outer loop
      vertex 1 7.5 -7.5
      vertex 1 9.5 -8.5
      vertex 1 7.5 5.5
    endloop
  endfacet
  facet normal 1 0 0
    outer loop
      vertex 1 8.5 7.5
      vertex 1 9.36601 7
      vertex 1 9.20709 7.20709
    endloop
  endfacet
  facet normal 1 0 -0
    outer loop
      vertex 1 8.5 -9.5
      vertex 1 9.5 -8.5
      vertex 1 7.5 -7.5
    endloop
  endfacet
  facet normal 1 0 0
    outer loop
      vertex 1 8.5 7.5
      vertex 1 9.20709 7.20709
      vertex 1 9 7.36601
    endloop
  endfacet
  facet normal 1 0 0
    outer loop
      vertex 1 9.5 -8.5
      vertex 1 8.5 -9.5
      vertex 1 9.46591 -8.75882
    endloop
  endfacet
  facet normal 1 0 0
    outer loop
      vertex 1 8.5 7.5
      vertex 1 9 7.36601
      vertex 1 8.7588 7.46591
    endloop
  endfacet
  facet normal 1 0 0
    outer loop
      vertex 1 9.46591 -8.75882
      vertex 1 8.5 -9.5
      vertex 1 9.36601 -9
    endloop
  endfacet
  facet normal 1 0 0
    outer loop
      vertex 1 9.5 6.5
      vertex 1 8.5 7.5
      vertex 1 7.5 5.5
    endloop
  endfacet
  facet normal 1 0 0
    outer loop
      vertex 1 9.36601 -9
      vertex 1 8.5 -9.5
      vertex 1 9.20709 -9.20711
    endloop
  endfacet
  facet normal 1 0 0
    outer loop
      vertex 1 9.20709 -9.20711
      vertex 1 8.5 -9.5
      vertex 1 9 -9.36603
    endloop
  endfacet
  facet normal 1 0 0
    outer loop
      vertex 1 8.5 7.5
      vertex 1 -3.5 5.5
      vertex 1 7.5 5.5
    endloop
  endfacet
  facet normal 1 -0 0
    outer loop
      vertex 1 -5.5 6.5
      vertex 1 -3.5 5.5
      vertex 1 -4.5 7.5
    endloop
  endfacet
  facet normal 1 -0 0
    outer loop
      vertex 1 -4.5 7.5
      vertex 1 -3.5 5.5
      vertex 1 8.5 7.5
    endloop
  endfacet
  facet normal 1 0 0
    outer loop
      vertex 1 9 -9.36603
      vertex 1 8.5 -9.5
      vertex 1 8.7588 -9.46593
    endloop
  endfacet
  facet normal 1 -0 0
    outer loop
      vertex 1 -7.5 -7.5
      vertex 1 8.5 -9.5
      vertex 1 7.5 -7.5
    endloop
  endfacet
  facet normal 1 0 0
    outer loop
      vertex 1 -7.5 -7.5
      vertex 1 -8.5 -9.5
      vertex 1 8.5 -9.5
    endloop
  endfacet
  facet normal 1 0 0
    outer loop
      vertex 1 -7.5 9.5
      vertex 1 -9.5 10.5
      vertex 1 -7.5 -7.5
    endloop
  endfacet
  facet normal 1 0 0
    outer loop
      vertex 1 -9.5 10.5
      vertex 1 -8.5 11.5
      vertex 1 -8.75882 11.4659
    endloop
  endfacet
  facet normal 1 0 0
    outer loop
      vertex 1 -9.5 -8.5
      vertex 1 -7.5 -7.5
      vertex 1 -9.5 10.5
    endloop
  endfacet
  facet normal 1 0 0
    outer loop
      vertex 1 -9.5 10.5
      vertex 1 -8.75882 11.4659
      vertex 1 -9 11.366
    endloop
  endfacet
  facet normal 1 0 0
    outer loop
      vertex 1 -7.5 -7.5
      vertex 1 -9.5 -8.5
      vertex 1 -8.5 -9.5
    endloop
  endfacet
  facet normal 1 0 0
    outer loop
      vertex 1 -9.5 10.5
      vertex 1 -9 11.366
      vertex 1 -9.20711 11.2071
    endloop
  endfacet
  facet normal 1 0 0
    outer loop
      vertex 1 -8.5 -9.5
      vertex 1 -9.5 -8.5
      vertex 1 -8.75882 -9.46593
    endloop
  endfacet
  facet normal 1 0 0
    outer loop
      vertex 1 -9.5 10.5
      vertex 1 -9.20711 11.2071
      vertex 1 -9.36603 11
    endloop
  endfacet
  facet normal 1 0 0
    outer loop
      vertex 1 -8.75882 -9.46593
      vertex 1 -9.5 -8.5
      vertex 1 -9.00002 -9.36603
    endloop
  endfacet
  facet normal 1 0 0
    outer loop
      vertex 1 -9.5 10.5
      vertex 1 -9.36603 11
      vertex 1 -9.46593 10.7588
    endloop
  endfacet
  facet normal 1 0 0
    outer loop
      vertex 1 -9.00002 -9.36603
      vertex 1 -9.5 -8.5
      vertex 1 -9.20711 -9.20711
    endloop
  endfacet
  facet normal 1 0 0
    outer loop
      vertex 1 -9.20711 -9.20711
      vertex 1 -9.5 -8.5
      vertex 1 -9.36603 -9
    endloop
  endfacet
  facet normal 1 0 0
    outer loop
      vertex 1 -9.36603 -9
      vertex 1 -9.5 -8.5
      vertex 1 -9.46593 -8.75882
    endloop
  endfacet
  facet normal 1 0 0
    outer loop
      vertex 1 4.5 3.5
      vertex 1 5.5 2.5
      vertex 1 5.46591 2.7588
    endloop
  endfacet
  facet normal 1 0 0
    outer loop
      vertex 1 5.5 2.5
      vertex 1 3.5 1.5
      vertex 1 5.5 -4.5
    endloop
  endfacet
  facet normal 1 0 0
    outer loop
      vertex 1 4.5 3.5
      vertex 1 5.46591 2.7588
      vertex 1 5.36601 3
    endloop
  endfacet
  facet normal 1 -0 0
    outer loop
      vertex 1 3.5 -3.5
      vertex 1 5.5 -4.5
      vertex 1 3.5 1.5
    endloop
  endfacet
  facet normal 1 0 0
    outer loop
      vertex 1 4.5 3.5
      vertex 1 5.36601 3
      vertex 1 5.20709 3.20709
    endloop
  endfacet
  facet normal 1 0 -0
    outer loop
      vertex 1 4.5 -5.5
      vertex 1 5.5 -4.5
      vertex 1 3.5 -3.5
    endloop
  endfacet
  facet normal 1 0 0
    outer loop
      vertex 1 4.5 3.5
      vertex 1 5.20709 3.20709
      vertex 1 5 3.36601
    endloop
  endfacet
  facet normal 1 0 0
    outer loop
      vertex 1 5.5 -4.5
      vertex 1 4.5 -5.5
      vertex 1 5.46591 -4.75882
    endloop
  endfacet
  facet normal 1 0 0
    outer loop
      vertex 1 4.5 3.5
      vertex 1 5 3.36601
      vertex 1 4.7588 3.46591
    endloop
  endfacet
  facet normal 1 0 0
    outer loop
      vertex 1 5.46591 -4.75882
      vertex 1 4.5 -5.5
      vertex 1 5.36601 -5
    endloop
  endfacet
  facet normal 1 0 0
    outer loop
      vertex 1 5.5 2.5
      vertex 1 4.5 3.5
      vertex 1 3.5 1.5
    endloop
  endfacet
  facet normal 1 0 0
    outer loop
      vertex 1 5.36601 -5
      vertex 1 4.5 -5.5
      vertex 1 5.20709 -5.20711
    endloop
  endfacet
  facet normal 1 0 0
    outer loop
      vertex 1 5.20709 -5.20711
      vertex 1 4.5 -5.5
      vertex 1 5 -5.36603
    endloop
  endfacet
  facet normal 1 0 0
    outer loop
      vertex 1 4.5 3.5
      vertex 1 0.5 1.5
      vertex 1 3.5 1.5
    endloop
  endfacet
  facet normal 1 0 0
    outer loop
      vertex 1 -1.5 -0.5
      vertex 1 0.5 -0.5
      vertex 1 0.5 1.5
    endloop
  endfacet
  facet normal 1 0 0
    outer loop
      vertex 1 0.5 -0.5
      vertex 1 -1.5 -0.5
      vertex 1 0.465912 -0.75882
    endloop
  endfacet
  facet normal 1 0 0
    outer loop
      vertex 1 0.465912 -0.75882
      vertex 1 -1.5 -0.5
      vertex 1 0.366013 -1
    endloop
  endfacet
  facet normal 1 0 0
    outer loop
      vertex 1 0.366013 -1
      vertex 1 -1.5 -0.5
      vertex 1 0.207092 -1.20711
    endloop
  endfacet
  facet normal 1 0 0
    outer loop
      vertex 1 0.207092 -1.20711
      vertex 1 -1.5 -0.5
      vertex 1 0 -1.36603
    endloop
  endfacet
  facet normal 1 -0 0
    outer loop
      vertex 1 -0.5 3.5
      vertex 1 0.5 1.5
      vertex 1 4.5 3.5
    endloop
  endfacet
  facet normal 1 -0 0
    outer loop
      vertex 1 -1.5 2.5
      vertex 1 0.5 1.5
      vertex 1 -0.5 3.5
    endloop
  endfacet
  facet normal 1 0 0
    outer loop
      vertex 1 -1.5 -0.5
      vertex 1 0.5 1.5
      vertex 1 -1.5 2.5
    endloop
  endfacet
  facet normal 1 0 0
    outer loop
      vertex 1 -1.5 2.5
      vertex 1 -0.5 3.5
      vertex 1 -0.75882 3.46591
    endloop
  endfacet
  facet normal 1 0 0
    outer loop
      vertex 1 0 -1.36603
      vertex 1 -1.5 -0.5
      vertex 1 -0.241196 -1.46593
    endloop
  endfacet
  facet normal 1 0 0
    outer loop
      vertex 1 -1.5 2.5
      vertex 1 -0.75882 3.46591
      vertex 1 -1 3.36601
    endloop
  endfacet
  facet normal 1 0 0
    outer loop
      vertex 1 -0.241196 -1.46593
      vertex 1 -1.5 -0.5
      vertex 1 -0.5 -1.5
    endloop
  endfacet
  facet normal 1 0 0
    outer loop
      vertex 1 -1.5 2.5
      vertex 1 -1 3.36601
      vertex 1 -1.20711 3.20709
    endloop
  endfacet
  facet normal 1 0 0
    outer loop
      vertex 1 -0.5 -1.5
      vertex 1 -1.5 -0.5
      vertex 1 -0.75882 -1.46593
    endloop
  endfacet
  facet normal 1 0 0
    outer loop
      vertex 1 -1.5 2.5
      vertex 1 -1.20711 3.20709
      vertex 1 -1.36603 3
    endloop
  endfacet
  facet normal 1 0 0
    outer loop
      vertex 1 -0.75882 -1.46593
      vertex 1 -1.5 -0.5
      vertex 1 -1 -1.36603
    endloop
  endfacet
  facet normal 1 0 0
    outer loop
      vertex 1 -1.5 2.5
      vertex 1 -1.36603 3
      vertex 1 -1.46593 2.7588
    endloop
  endfacet
  facet normal 1 0 0
    outer loop
      vertex 1 -1 -1.36603
      vertex 1 -1.5 -0.5
      vertex 1 -1.20711 -1.20711
    endloop
  endfacet
  facet normal 1 0 0
    outer loop
      vertex 1 -1.20711 -1.20711
      vertex 1 -1.5 -0.5
      vertex 1 -1.36603 -1
    endloop
  endfacet
  facet normal 1 0 0
    outer loop
      vertex 1 -1.36603 -1
      vertex 1 -1.5 -0.5
      vertex 1 -1.46593 -0.75882
    endloop
  endfacet
  facet normal 1 0 0
    outer loop
      vertex 1 5 -5.36603
      vertex 1 4.5 -5.5
      vertex 1 4.7588 -5.46593
    endloop
  endfacet
  facet normal 1 -0 0
    outer loop
      vertex 1 -3.5 -3.5
      vertex 1 4.5 -5.5
      vertex 1 3.5 -3.5
    endloop
  endfacet
  facet normal 1 0 0
    outer loop
      vertex 1 -3.5 -3.5
      vertex 1 -4.5 -5.5
      vertex 1 4.5 -5.5
    endloop
  endfacet
  facet normal 1 0 0
    outer loop
      vertex 1 -3.5 5.5
      vertex 1 -5.5 6.5
      vertex 1 -3.5 -3.5
    endloop
  endfacet
  facet normal 1 0 0
    outer loop
      vertex 1 -5.5 6.5
      vertex 1 -4.5 7.5
      vertex 1 -4.75882 7.46591
    endloop
  endfacet
  facet normal 1 0 0
    outer loop
      vertex 1 -5.5 -4.5
      vertex 1 -3.5 -3.5
      vertex 1 -5.5 6.5
    endloop
  endfacet
  facet normal 1 0 0
    outer loop
      vertex 1 -5.5 6.5
      vertex 1 -4.75882 7.46591
      vertex 1 -5 7.36601
    endloop
  endfacet
  facet normal 1 0 0
    outer loop
      vertex 1 -3.5 -3.5
      vertex 1 -5.5 -4.5
      vertex 1 -4.5 -5.5
    endloop
  endfacet
  facet normal 1 0 0
    outer loop
      vertex 1 -5.5 6.5
      vertex 1 -5 7.36601
      vertex 1 -5.20711 7.20709
    endloop
  endfacet
  facet normal 1 0 0
    outer loop
      vertex 1 -4.5 -5.5
      vertex 1 -5.5 -4.5
      vertex 1 -4.75882 -5.46593
    endloop
  endfacet
  facet normal 1 0 0
    outer loop
      vertex 1 -5.5 6.5
      vertex 1 -5.20711 7.20709
      vertex 1 -5.36603 7
    endloop
  endfacet
  facet normal 1 0 0
    outer loop
      vertex 1 -4.75882 -5.46593
      vertex 1 -5.5 -4.5
      vertex 1 -5 -5.36603
    endloop
  endfacet
  facet normal 1 0 0
    outer loop
      vertex 1 -5.5 6.5
      vertex 1 -5.36603 7
      vertex 1 -5.46593 6.7588
    endloop
  endfacet
  facet normal 1 0 0
    outer loop
      vertex 1 -5 -5.36603
      vertex 1 -5.5 -4.5
      vertex 1 -5.20711 -5.20711
    endloop
  endfacet
  facet normal 1 0 0
    outer loop
      vertex 1 -5.20711 -5.20711
      vertex 1 -5.5 -4.5
      vertex 1 -5.36603 -5
    endloop
  endfacet
  facet normal 1 0 0
    outer loop
      vertex 1 -5.36603 -5
      vertex 1 -5.5 -4.5
      vertex 1 -5.46593 -4.75882
    endloop
  endfacet
  facet normal 0 0 -1
    outer loop
      vertex -1 0.5 1.5
      vertex 1 3.5 1.5
      vertex 1 0.5 1.5
    endloop
  endfacet
  facet normal -0 0 -1
    outer loop
      vertex 1 3.5 1.5
      vertex -1 0.5 1.5
      vertex -1 3.5 1.5
    endloop
  endfacet
  facet normal 0 -0.991445 0.130529
    outer loop
      vertex -1 -1.5 2.5
      vertex 1 -1.46593 2.7588
      vertex -1 -1.46593 2.7588
    endloop
  endfacet
  facet normal 0 -0.991445 0.130529
    outer loop
      vertex 1 -1.46593 2.7588
      vertex -1 -1.5 2.5
      vertex 1 -1.5 2.5
    endloop
  endfacet
  facet normal 0 -0.79333 0.608792
    outer loop
      vertex -1 -1.36603 3
      vertex 1 -1.20711 3.20709
      vertex -1 -1.20711 3.20709
    endloop
  endfacet
  facet normal 0 -0.79333 0.608792
    outer loop
      vertex 1 -1.20711 3.20709
      vertex -1 -1.36603 3
      vertex 1 -1.36603 3
    endloop
  endfacet
  facet normal 0 0.79333 0.608792
    outer loop
      vertex 1 5.36601 3
      vertex -1 5.20709 3.20709
      vertex 1 5.20709 3.20709
    endloop
  endfacet
  facet normal 0 0.79333 0.608792
    outer loop
      vertex -1 5.20709 3.20709
      vertex 1 5.36601 3
      vertex -1 5.36601 3
    endloop
  endfacet
  facet normal 0 -0.923889 0.38266
    outer loop
      vertex -1 -1.46593 2.7588
      vertex 1 -1.36603 3
      vertex -1 -1.36603 3
    endloop
  endfacet
  facet normal 0 -0.923889 0.38266
    outer loop
      vertex 1 -1.36603 3
      vertex -1 -1.46593 2.7588
      vertex 1 -1.46593 2.7588
    endloop
  endfacet
  facet normal 0 0.130529 -0.991445
    outer loop
      vertex -1 -0.5 -1.5
      vertex 1 -0.241196 -1.46593
      vertex 1 -0.5 -1.5
    endloop
  endfacet
  facet normal 0 0.130529 -0.991445
    outer loop
      vertex 1 -0.241196 -1.46593
      vertex -1 -0.5 -1.5
      vertex -1 -0.241196 -1.46593
    endloop
  endfacet
  facet normal 0 0.991438 -0.130578
    outer loop
      vertex 1 0.465912 -0.75882
      vertex -1 0.5 -0.5
      vertex 1 0.5 -0.5
    endloop
  endfacet
  facet normal 0 0.991438 -0.130578
    outer loop
      vertex -1 0.5 -0.5
      vertex 1 0.465912 -0.75882
      vertex -1 0.465912 -0.75882
    endloop
  endfacet
  facet normal 0 -0.991446 -0.130521
    outer loop
      vertex -1 -1.46593 -0.75882
      vertex 1 -1.5 -0.5
      vertex -1 -1.5 -0.5
    endloop
  endfacet
  facet normal 0 -0.991446 -0.130521
    outer loop
      vertex 1 -1.5 -0.5
      vertex -1 -1.46593 -0.75882
      vertex 1 -1.46593 -0.75882
    endloop
  endfacet
  facet normal 0 -0.923881 -0.38268
    outer loop
      vertex -1 -1.36603 -1
      vertex 1 -1.46593 -0.75882
      vertex -1 -1.46593 -0.75882
    endloop
  endfacet
  facet normal 0 -0.923881 -0.38268
    outer loop
      vertex 1 -1.46593 -0.75882
      vertex -1 -1.36603 -1
      vertex 1 -1.36603 -1
    endloop
  endfacet
  facet normal 0 -0.793351 -0.608764
    outer loop
      vertex -1 -1.20711 -1.20711
      vertex 1 -1.36603 -1
      vertex -1 -1.36603 -1
    endloop
  endfacet
  facet normal 0 -0.793351 -0.608764
    outer loop
      vertex 1 -1.36603 -1
      vertex -1 -1.20711 -1.20711
      vertex 1 -1.20711 -1.20711
    endloop
  endfacet
  facet normal 0 -0.38268 -0.923881
    outer loop
      vertex -1 -1 -1.36603
      vertex 1 -0.75882 -1.46593
      vertex 1 -1 -1.36603
    endloop
  endfacet
  facet normal -0 -0.38268 -0.923881
    outer loop
      vertex 1 -0.75882 -1.46593
      vertex -1 -1 -1.36603
      vertex -1 -0.75882 -1.46593
    endloop
  endfacet
  facet normal 0 0.38266 -0.923889
    outer loop
      vertex -1 -0.241196 -1.46593
      vertex 1 0 -1.36603
      vertex 1 -0.241196 -1.46593
    endloop
  endfacet
  facet normal 0 0.38266 -0.923889
    outer loop
      vertex 1 0 -1.36603
      vertex -1 -0.241196 -1.46593
      vertex -1 0 -1.36603
    endloop
  endfacet
  facet normal 0 0.793351 -0.608764
    outer loop
      vertex 1 0.207092 -1.20711
      vertex -1 0.366013 -1
      vertex 1 0.366013 -1
    endloop
  endfacet
  facet normal 0 0.793351 -0.608764
    outer loop
      vertex -1 0.366013 -1
      vertex 1 0.207092 -1.20711
      vertex -1 0.207092 -1.20711
    endloop
  endfacet
  facet normal 0 1 -0
    outer loop
      vertex 1 0.5 -0.5
      vertex -1 0.5 1.5
      vertex 1 0.5 1.5
    endloop
  endfacet
  facet normal 0 1 0
    outer loop
      vertex -1 0.5 1.5
      vertex 1 0.5 -0.5
      vertex -1 0.5 -0.5
    endloop
  endfacet
  facet normal 0 0.923881 -0.38268
    outer loop
      vertex 1 0.366013 -1
      vertex -1 0.465912 -0.75882
      vertex 1 0.465912 -0.75882
    endloop
  endfacet
  facet normal 0 0.923881 -0.38268
    outer loop
      vertex -1 0.465912 -0.75882
      vertex 1 0.366013 -1
      vertex -1 0.366013 -1
    endloop
  endfacet
  facet normal 0 -1 0
    outer loop
      vertex -1 -1.5 -0.5
      vertex 1 -1.5 2.5
      vertex -1 -1.5 2.5
    endloop
  endfacet
  facet normal 0 -1 -0
    outer loop
      vertex 1 -1.5 2.5
      vertex -1 -1.5 -0.5
      vertex 1 -1.5 -0.5
    endloop
  endfacet
  facet normal 0 -0.130521 -0.991446
    outer loop
      vertex -1 -0.75882 -1.46593
      vertex 1 -0.5 -1.5
      vertex 1 -0.75882 -1.46593
    endloop
  endfacet
  facet normal -0 -0.130521 -0.991446
    outer loop
      vertex 1 -0.5 -1.5
      vertex -1 -0.75882 -1.46593
      vertex -1 -0.5 -1.5
    endloop
  endfacet
  facet normal 0 -0.608764 -0.793351
    outer loop
      vertex -1 -1.20711 -1.20711
      vertex 1 -1 -1.36603
      vertex 1 -1.20711 -1.20711
    endloop
  endfacet
  facet normal -0 -0.608764 -0.793351
    outer loop
      vertex 1 -1 -1.36603
      vertex -1 -1.20711 -1.20711
      vertex -1 -1 -1.36603
    endloop
  endfacet
  facet normal 0 0.608792 -0.79333
    outer loop
      vertex -1 0 -1.36603
      vertex 1 0.207092 -1.20711
      vertex 1 0 -1.36603
    endloop
  endfacet
  facet normal 0 0.608792 -0.79333
    outer loop
      vertex 1 0.207092 -1.20711
      vertex -1 0 -1.36603
      vertex -1 0.207092 -1.20711
    endloop
  endfacet
  facet normal 0 0.130529 -0.991445
    outer loop
      vertex -1 4.5 -5.5
      vertex 1 4.7588 -5.46593
      vertex 1 4.5 -5.5
    endloop
  endfacet
  facet normal 0 0.130529 -0.991445
    outer loop
      vertex 1 4.7588 -5.46593
      vertex -1 4.5 -5.5
      vertex -1 4.7588 -5.46593
    endloop
  endfacet
  facet normal 0 1 -0
    outer loop
      vertex 1 5.5 -4.5
      vertex -1 5.5 2.5
      vertex 1 5.5 2.5
    endloop
  endfacet
  facet normal 0 1 0
    outer loop
      vertex -1 5.5 2.5
      vertex 1 5.5 -4.5
      vertex -1 5.5 -4.5
    endloop
  endfacet
  facet normal 0 0.991438 -0.130578
    outer loop
      vertex 1 5.46591 -4.75882
      vertex -1 5.5 -4.5
      vertex 1 5.5 -4.5
    endloop
  endfacet
  facet normal 0 0.991438 -0.130578
    outer loop
      vertex -1 5.5 -4.5
      vertex 1 5.46591 -4.75882
      vertex -1 5.46591 -4.75882
    endloop
  endfacet
  facet normal 0 0.38266 -0.923889
    outer loop
      vertex -1 4.7588 -5.46593
      vertex 1 5 -5.36603
      vertex 1 4.7588 -5.46593
    endloop
  endfacet
  facet normal 0 0.38266 -0.923889
    outer loop
      vertex 1 5 -5.36603
      vertex -1 4.7588 -5.46593
      vertex -1 5 -5.36603
    endloop
  endfacet
  facet normal 0 0.923881 -0.38268
    outer loop
      vertex 1 5.36601 -5
      vertex -1 5.46591 -4.75882
      vertex 1 5.46591 -4.75882
    endloop
  endfacet
  facet normal 0 0.923881 -0.38268
    outer loop
      vertex -1 5.46591 -4.75882
      vertex 1 5.36601 -5
      vertex -1 5.36601 -5
    endloop
  endfacet
  facet normal 0 -1 0
    outer loop
      vertex -1 3.5 -3.5
      vertex 1 3.5 1.5
      vertex -1 3.5 1.5
    endloop
  endfacet
  facet normal 0 -1 -0
    outer loop
      vertex 1 3.5 1.5
      vertex -1 3.5 -3.5
      vertex 1 3.5 -3.5
    endloop
  endfacet
  facet normal 0 0.608792 -0.79333
    outer loop
      vertex -1 5 -5.36603
      vertex 1 5.20709 -5.20711
      vertex 1 5 -5.36603
    endloop
  endfacet
  facet normal 0 0.608792 -0.79333
    outer loop
      vertex 1 5.20709 -5.20711
      vertex -1 5 -5.36603
      vertex -1 5.20709 -5.20711
    endloop
  endfacet
  facet normal 0 0.793351 -0.608764
    outer loop
      vertex 1 5.20709 -5.20711
      vertex -1 5.36601 -5
      vertex 1 5.36601 -5
    endloop
  endfacet
  facet normal 0 0.793351 -0.608764
    outer loop
      vertex -1 5.36601 -5
      vertex 1 5.20709 -5.20711
      vertex -1 5.20709 -5.20711
    endloop
  endfacet
  facet normal -0 0 1
    outer loop
      vertex -1 3.5 -3.5
      vertex 1 -3.5 -3.5
      vertex 1 3.5 -3.5
    endloop
  endfacet
  facet normal 0 0 1
    outer loop
      vertex 1 -3.5 -3.5
      vertex -1 3.5 -3.5
      vertex -1 -3.5 -3.5
    endloop
  endfacet
  facet normal 0 -0.130521 -0.991446
    outer loop
      vertex -1 -4.75882 -5.46593
      vertex 1 -4.5 -5.5
      vertex 1 -4.75882 -5.46593
    endloop
  endfacet
  facet normal -0 -0.130521 -0.991446
    outer loop
      vertex 1 -4.5 -5.5
      vertex -1 -4.75882 -5.46593
      vertex -1 -4.5 -5.5
    endloop
  endfacet
  facet normal 0 0 -1
    outer loop
      vertex -1 -4.5 -5.5
      vertex 1 4.5 -5.5
      vertex 1 -4.5 -5.5
    endloop
  endfacet
  facet normal -0 0 -1
    outer loop
      vertex 1 4.5 -5.5
      vertex -1 -4.5 -5.5
      vertex -1 4.5 -5.5
    endloop
  endfacet
  facet normal 0 -0.608764 -0.793351
    outer loop
      vertex -1 -5.20711 -5.20711
      vertex 1 -5 -5.36603
      vertex 1 -5.20711 -5.20711
    endloop
  endfacet
  facet normal -0 -0.608764 -0.793351
    outer loop
      vertex 1 -5 -5.36603
      vertex -1 -5.20711 -5.20711
      vertex -1 -5 -5.36603
    endloop
  endfacet
  facet normal 0 -0.923881 -0.38268
    outer loop
      vertex -1 -5.36603 -5
      vertex 1 -5.46593 -4.75882
      vertex -1 -5.46593 -4.75882
    endloop
  endfacet
  facet normal 0 -0.923881 -0.38268
    outer loop
      vertex 1 -5.46593 -4.75882
      vertex -1 -5.36603 -5
      vertex 1 -5.36603 -5
    endloop
  endfacet
  facet normal 0 -0.991446 -0.130521
    outer loop
      vertex -1 -5.46593 -4.75882
      vertex 1 -5.5 -4.5
      vertex -1 -5.5 -4.5
    endloop
  endfacet
  facet normal 0 -0.991446 -0.130521
    outer loop
      vertex 1 -5.5 -4.5
      vertex -1 -5.46593 -4.75882
      vertex 1 -5.46593 -4.75882
    endloop
  endfacet
  facet normal 0 -0.793351 -0.608764
    outer loop
      vertex -1 -5.20711 -5.20711
      vertex 1 -5.36603 -5
      vertex -1 -5.36603 -5
    endloop
  endfacet
  facet normal 0 -0.793351 -0.608764
    outer loop
      vertex 1 -5.36603 -5
      vertex -1 -5.20711 -5.20711
      vertex 1 -5.20711 -5.20711
    endloop
  endfacet
  facet normal 0 -0.38268 -0.923881
    outer loop
      vertex -1 -5 -5.36603
      vertex 1 -4.75882 -5.46593
      vertex 1 -5 -5.36603
    endloop
  endfacet
  facet normal -0 -0.38268 -0.923881
    outer loop
      vertex 1 -4.75882 -5.46593
      vertex -1 -5 -5.36603
      vertex -1 -4.75882 -5.46593
    endloop
  endfacet
  facet normal 0 -1 0
    outer loop
      vertex -1 -5.5 -4.5
      vertex 1 -5.5 6.5
      vertex -1 -5.5 6.5
    endloop
  endfacet
  facet normal 0 -1 -0
    outer loop
      vertex 1 -5.5 6.5
      vertex -1 -5.5 -4.5
      vertex 1 -5.5 -4.5
    endloop
  endfacet
  facet normal 0 -0.130578 0.991438
    outer loop
      vertex -1 -4.5 7.5
      vertex 1 -4.75882 7.46591
      vertex 1 -4.5 7.5
    endloop
  endfacet
  facet normal 0 -0.130578 0.991438
    outer loop
      vertex 1 -4.75882 7.46591
      vertex -1 -4.5 7.5
      vertex -1 -4.75882 7.46591
    endloop
  endfacet
  facet normal 0 1 -0
    outer loop
      vertex 1 -3.5 -3.5
      vertex -1 -3.5 5.5
      vertex 1 -3.5 5.5
    endloop
  endfacet
  facet normal 0 1 0
    outer loop
      vertex -1 -3.5 5.5
      vertex 1 -3.5 -3.5
      vertex -1 -3.5 -3.5
    endloop
  endfacet
  facet normal 0 -0.79333 0.608792
    outer loop
      vertex -1 -5.36603 7
      vertex 1 -5.20711 7.20709
      vertex -1 -5.20711 7.20709
    endloop
  endfacet
  facet normal 0 -0.79333 0.608792
    outer loop
      vertex 1 -5.20711 7.20709
      vertex -1 -5.36603 7
      vertex 1 -5.36603 7
    endloop
  endfacet
  facet normal 0 -0.38268 0.923881
    outer loop
      vertex -1 -4.75882 7.46591
      vertex 1 -5 7.36601
      vertex 1 -4.75882 7.46591
    endloop
  endfacet
  facet normal 0 -0.38268 0.923881
    outer loop
      vertex 1 -5 7.36601
      vertex -1 -4.75882 7.46591
      vertex -1 -5 7.36601
    endloop
  endfacet
  facet normal 0 -0.923889 0.38266
    outer loop
      vertex -1 -5.46593 6.7588
      vertex 1 -5.36603 7
      vertex -1 -5.36603 7
    endloop
  endfacet
  facet normal 0 -0.923889 0.38266
    outer loop
      vertex 1 -5.36603 7
      vertex -1 -5.46593 6.7588
      vertex 1 -5.46593 6.7588
    endloop
  endfacet
  facet normal 0 -0.608764 0.793351
    outer loop
      vertex -1 -5 7.36601
      vertex 1 -5.20711 7.20709
      vertex 1 -5 7.36601
    endloop
  endfacet
  facet normal 0 -0.608764 0.793351
    outer loop
      vertex 1 -5.20711 7.20709
      vertex -1 -5 7.36601
      vertex -1 -5.20711 7.20709
    endloop
  endfacet
  facet normal 0 -0.991445 0.130529
    outer loop
      vertex -1 -5.5 6.5
      vertex 1 -5.46593 6.7588
      vertex -1 -5.46593 6.7588
    endloop
  endfacet
  facet normal 0 -0.991445 0.130529
    outer loop
      vertex 1 -5.46593 6.7588
      vertex -1 -5.5 6.5
      vertex 1 -5.5 6.5
    endloop
  endfacet
  facet normal 0 0.991437 0.130586
    outer loop
      vertex 1 9.5 6.5
      vertex -1 9.46591 6.7588
      vertex 1 9.46591 6.7588
    endloop
  endfacet
  facet normal 0 0.991437 0.130586
    outer loop
      vertex -1 9.46591 6.7588
      vertex 1 9.5 6.5
      vertex -1 9.5 6.5
    endloop
  endfacet
  facet normal -0 0 1
    outer loop
      vertex -1 8.5 7.5
      vertex 1 -4.5 7.5
      vertex 1 8.5 7.5
    endloop
  endfacet
  facet normal 0 0 1
    outer loop
      vertex 1 -4.5 7.5
      vertex -1 8.5 7.5
      vertex -1 -4.5 7.5
    endloop
  endfacet
  facet normal 0 0 -1
    outer loop
      vertex -1 -3.5 5.5
      vertex 1 7.5 5.5
      vertex 1 -3.5 5.5
    endloop
  endfacet
  facet normal -0 0 -1
    outer loop
      vertex 1 7.5 5.5
      vertex -1 -3.5 5.5
      vertex -1 7.5 5.5
    endloop
  endfacet
  facet normal -0 0.130586 0.991437
    outer loop
      vertex -1 8.7588 7.46591
      vertex 1 8.5 7.5
      vertex 1 8.7588 7.46591
    endloop
  endfacet
  facet normal 0 0.130586 0.991437
    outer loop
      vertex 1 8.5 7.5
      vertex -1 8.7588 7.46591
      vertex -1 8.5 7.5
    endloop
  endfacet
  facet normal 0 0.923889 0.38266
    outer loop
      vertex 1 9.46591 6.7588
      vertex -1 9.36601 7
      vertex 1 9.36601 7
    endloop
  endfacet
  facet normal 0 0.923889 0.38266
    outer loop
      vertex -1 9.36601 7
      vertex 1 9.46591 6.7588
      vertex -1 9.46591 6.7588
    endloop
  endfacet
  facet normal -0 0.38266 0.923889
    outer loop
      vertex -1 9 7.36601
      vertex 1 8.7588 7.46591
      vertex 1 9 7.36601
    endloop
  endfacet
  facet normal 0 0.38266 0.923889
    outer loop
      vertex 1 8.7588 7.46591
      vertex -1 9 7.36601
      vertex -1 8.7588 7.46591
    endloop
  endfacet
  facet normal 0 0.79333 0.608792
    outer loop
      vertex 1 9.36601 7
      vertex -1 9.20709 7.20709
      vertex 1 9.20709 7.20709
    endloop
  endfacet
  facet normal 0 0.79333 0.608792
    outer loop
      vertex -1 9.20709 7.20709
      vertex 1 9.36601 7
      vertex -1 9.36601 7
    endloop
  endfacet
  facet normal -0 0.608792 0.79333
    outer loop
      vertex -1 9.20709 7.20709
      vertex 1 9 7.36601
      vertex 1 9.20709 7.20709
    endloop
  endfacet
  facet normal 0 0.608792 0.79333
    outer loop
      vertex 1 9 7.36601
      vertex -1 9.20709 7.20709
      vertex -1 9 7.36601
    endloop
  endfacet
  facet normal 0 0.991438 -0.130578
    outer loop
      vertex 1 9.46591 -8.75882
      vertex -1 9.5 -8.5
      vertex 1 9.5 -8.5
    endloop
  endfacet
  facet normal 0 0.991438 -0.130578
    outer loop
      vertex -1 9.5 -8.5
      vertex 1 9.46591 -8.75882
      vertex -1 9.46591 -8.75882
    endloop
  endfacet
  facet normal 0 1 -0
    outer loop
      vertex 1 9.5 -8.5
      vertex -1 9.5 6.5
      vertex 1 9.5 6.5
    endloop
  endfacet
  facet normal 0 1 0
    outer loop
      vertex -1 9.5 6.5
      vertex 1 9.5 -8.5
      vertex -1 9.5 -8.5
    endloop
  endfacet
  facet normal 0 -1 0
    outer loop
      vertex -1 7.5 -7.5
      vertex 1 7.5 5.5
      vertex -1 7.5 5.5
    endloop
  endfacet
  facet normal 0 -1 -0
    outer loop
      vertex 1 7.5 5.5
      vertex -1 7.5 -7.5
      vertex 1 7.5 -7.5
    endloop
  endfacet
  facet normal 0 0.130529 -0.991445
    outer loop
      vertex -1 8.5 -9.5
      vertex 1 8.7588 -9.46593
      vertex 1 8.5 -9.5
    endloop
  endfacet
  facet normal 0 0.130529 -0.991445
    outer loop
      vertex 1 8.7588 -9.46593
      vertex -1 8.5 -9.5
      vertex -1 8.7588 -9.46593
    endloop
  endfacet
  facet normal 0 0.608792 -0.79333
    outer loop
      vertex -1 9 -9.36603
      vertex 1 9.20709 -9.20711
      vertex 1 9 -9.36603
    endloop
  endfacet
  facet normal 0 0.608792 -0.79333
    outer loop
      vertex 1 9.20709 -9.20711
      vertex -1 9 -9.36603
      vertex -1 9.20709 -9.20711
    endloop
  endfacet
  facet normal 0 0.793351 -0.608764
    outer loop
      vertex 1 9.20709 -9.20711
      vertex -1 9.36601 -9
      vertex 1 9.36601 -9
    endloop
  endfacet
  facet normal 0 0.793351 -0.608764
    outer loop
      vertex -1 9.36601 -9
      vertex 1 9.20709 -9.20711
      vertex -1 9.20709 -9.20711
    endloop
  endfacet
  facet normal 0 0.38266 -0.923889
    outer loop
      vertex -1 8.7588 -9.46593
      vertex 1 9 -9.36603
      vertex 1 8.7588 -9.46593
    endloop
  endfacet
  facet normal 0 0.38266 -0.923889
    outer loop
      vertex 1 9 -9.36603
      vertex -1 8.7588 -9.46593
      vertex -1 9 -9.36603
    endloop
  endfacet
  facet normal 0 0.923881 -0.38268
    outer loop
      vertex 1 9.36601 -9
      vertex -1 9.46591 -8.75882
      vertex 1 9.46591 -8.75882
    endloop
  endfacet
  facet normal 0 0.923881 -0.38268
    outer loop
      vertex -1 9.46591 -8.75882
      vertex 1 9.36601 -9
      vertex -1 9.36601 -9
    endloop
  endfacet
  facet normal -0 0 1
    outer loop
      vertex -1 7.5 -7.5
      vertex 1 -7.5 -7.5
      vertex 1 7.5 -7.5
    endloop
  endfacet
  facet normal 0 0 1
    outer loop
      vertex 1 -7.5 -7.5
      vertex -1 7.5 -7.5
      vertex -1 -7.5 -7.5
    endloop
  endfacet
  facet normal 0 0 -1
    outer loop
      vertex -1 -8.5 -9.5
      vertex 1 8.5 -9.5
      vertex 1 -8.5 -9.5
    endloop
  endfacet
  facet normal -0 0 -1
    outer loop
      vertex 1 8.5 -9.5
      vertex -1 -8.5 -9.5
      vertex -1 8.5 -9.5
    endloop
  endfacet
  facet normal 0 -0.38266 -0.923889
    outer loop
      vertex -1 -9.00002 -9.36603
      vertex 1 -8.75882 -9.46593
      vertex 1 -9.00002 -9.36603
    endloop
  endfacet
  facet normal -0 -0.38266 -0.923889
    outer loop
      vertex 1 -8.75882 -9.46593
      vertex -1 -9.00002 -9.36603
      vertex -1 -8.75882 -9.46593
    endloop
  endfacet
  facet normal 0 -0.793351 -0.608764
    outer loop
      vertex -1 -9.20711 -9.20711
      vertex 1 -9.36603 -9
      vertex -1 -9.36603 -9
    endloop
  endfacet
  facet normal 0 -0.793351 -0.608764
    outer loop
      vertex 1 -9.36603 -9
      vertex -1 -9.20711 -9.20711
      vertex 1 -9.20711 -9.20711
    endloop
  endfacet
  facet normal 0 -0.923881 -0.38268
    outer loop
      vertex -1 -9.36603 -9
      vertex 1 -9.46593 -8.75882
      vertex -1 -9.46593 -8.75882
    endloop
  endfacet
  facet normal 0 -0.923881 -0.38268
    outer loop
      vertex 1 -9.46593 -8.75882
      vertex -1 -9.36603 -9
      vertex 1 -9.36603 -9
    endloop
  endfacet
  facet normal 0 -0.608792 -0.79333
    outer loop
      vertex -1 -9.20711 -9.20711
      vertex 1 -9.00002 -9.36603
      vertex 1 -9.20711 -9.20711
    endloop
  endfacet
  facet normal -0 -0.608792 -0.79333
    outer loop
      vertex 1 -9.00002 -9.36603
      vertex -1 -9.20711 -9.20711
      vertex -1 -9.00002 -9.36603
    endloop
  endfacet
  facet normal 0 -0.130521 -0.991446
    outer loop
      vertex -1 -8.75882 -9.46593
      vertex 1 -8.5 -9.5
      vertex 1 -8.75882 -9.46593
    endloop
  endfacet
  facet normal -0 -0.130521 -0.991446
    outer loop
      vertex 1 -8.5 -9.5
      vertex -1 -8.75882 -9.46593
      vertex -1 -8.5 -9.5
    endloop
  endfacet
  facet normal 0 -0.991446 -0.130521
    outer loop
      vertex -1 -9.46593 -8.75882
      vertex 1 -9.5 -8.5
      vertex -1 -9.5 -8.5
    endloop
  endfacet
  facet normal 0 -0.991446 -0.130521
    outer loop
      vertex 1 -9.5 -8.5
      vertex -1 -9.46593 -8.75882
      vertex 1 -9.46593 -8.75882
    endloop
  endfacet
  facet normal 0 -0.991445 0.130529
    outer loop
      vertex -1 -9.5 10.5
      vertex 1 -9.46593 10.7588
      vertex -1 -9.46593 10.7588
    endloop
  endfacet
  facet normal 0 -0.991445 0.130529
    outer loop
      vertex 1 -9.46593 10.7588
      vertex -1 -9.5 10.5
      vertex 1 -9.5 10.5
    endloop
  endfacet
  facet normal 0 1 -0
    outer loop
      vertex 1 -7.5 -7.5
      vertex -1 -7.5 9.5
      vertex 1 -7.5 9.5
    endloop
  endfacet
  facet normal 0 1 0
    outer loop
      vertex -1 -7.5 9.5
      vertex 1 -7.5 -7.5
      vertex -1 -7.5 -7.5
    endloop
  endfacet
  facet normal 0 -1 0
    outer loop
      vertex -1 -9.5 -8.5
      vertex 1 -9.5 10.5
      vertex -1 -9.5 10.5
    endloop
  endfacet
  facet normal 0 -1 -0
    outer loop
      vertex 1 -9.5 10.5
      vertex -1 -9.5 -8.5
      vertex 1 -9.5 -8.5
    endloop
  endfacet
  facet normal 0 -0.79333 0.608792
    outer loop
      vertex -1 -9.36603 11
      vertex 1 -9.20711 11.2071
      vertex -1 -9.20711 11.2071
    endloop
  endfacet
  facet normal 0 -0.79333 0.608792
    outer loop
      vertex 1 -9.20711 11.2071
      vertex -1 -9.36603 11
      vertex 1 -9.36603 11
    endloop
  endfacet
  facet normal 0 -0.38268 0.923881
    outer loop
      vertex -1 -8.75882 11.4659
      vertex 1 -9 11.366
      vertex 1 -8.75882 11.4659
    endloop
  endfacet
  facet normal 0 -0.38268 0.923881
    outer loop
      vertex 1 -9 11.366
      vertex -1 -8.75882 11.4659
      vertex -1 -9 11.366
    endloop
  endfacet
  facet normal 0 -0.923889 0.38266
    outer loop
      vertex -1 -9.46593 10.7588
      vertex 1 -9.36603 11
      vertex -1 -9.36603 11
    endloop
  endfacet
  facet normal 0 -0.923889 0.38266
    outer loop
      vertex 1 -9.36603 11
      vertex -1 -9.46593 10.7588
      vertex 1 -9.46593 10.7588
    endloop
  endfacet
  facet normal 0 -0.608764 0.793351
    outer loop
      vertex -1 -9 11.366
      vertex 1 -9.20711 11.2071
      vertex 1 -9 11.366
    endloop
  endfacet
  facet normal 0 -0.608764 0.793351
    outer loop
      vertex 1 -9.20711 11.2071
      vertex -1 -9 11.366
      vertex -1 -9.20711 11.2071
    endloop
  endfacet
  facet normal 0 -0.130578 0.991438
    outer loop
      vertex -1 -8.5 11.5
      vertex 1 -8.75882 11.4659
      vertex 1 -8.5 11.5
    endloop
  endfacet
  facet normal 0 -0.130578 0.991438
    outer loop
      vertex 1 -8.75882 11.4659
      vertex -1 -8.5 11.5
      vertex -1 -8.75882 11.4659
    endloop
  endfacet
  facet normal -0 0.130586 0.991437
    outer loop
      vertex -1 12.7588 11.4659
      vertex 1 12.5 11.5
      vertex 1 12.7588 11.4659
    endloop
  endfacet
  facet normal 0 0.130586 0.991437
    outer loop
      vertex 1 12.5 11.5
      vertex -1 12.7588 11.4659
      vertex -1 12.5 11.5
    endloop
  endfacet
  facet normal -0 0 1
    outer loop
      vertex -1 12.5 11.5
      vertex 1 -8.5 11.5
      vertex 1 12.5 11.5
    endloop
  endfacet
  facet normal 0 0 1
    outer loop
      vertex 1 -8.5 11.5
      vertex -1 12.5 11.5
      vertex -1 -8.5 11.5
    endloop
  endfacet
  facet normal 0 0 -1
    outer loop
      vertex -1 -7.5 9.5
      vertex 1 11.5 9.5
      vertex 1 -7.5 9.5
    endloop
  endfacet
  facet normal -0 0 -1
    outer loop
      vertex 1 11.5 9.5
      vertex -1 -7.5 9.5
      vertex -1 11.5 9.5
    endloop
  endfacet
  facet normal 0 0.991437 0.130586
    outer loop
      vertex 1 13.5 10.5
      vertex -1 13.4659 10.7588
      vertex 1 13.4659 10.7588
    endloop
  endfacet
  facet normal 0 0.991437 0.130586
    outer loop
      vertex -1 13.4659 10.7588
      vertex 1 13.5 10.5
      vertex -1 13.5 10.5
    endloop
  endfacet
  facet normal -0 0.608792 0.79333
    outer loop
      vertex -1 13.2071 11.2071
      vertex 1 13 11.366
      vertex 1 13.2071 11.2071
    endloop
  endfacet
  facet normal 0 0.608792 0.79333
    outer loop
      vertex 1 13 11.366
      vertex -1 13.2071 11.2071
      vertex -1 13 11.366
    endloop
  endfacet
  facet normal -0 0.38266 0.923889
    outer loop
      vertex -1 13 11.366
      vertex 1 12.7588 11.4659
      vertex 1 13 11.366
    endloop
  endfacet
  facet normal 0 0.38266 0.923889
    outer loop
      vertex 1 12.7588 11.4659
      vertex -1 13 11.366
      vertex -1 12.7588 11.4659
    endloop
  endfacet
  facet normal 0 0.923889 0.38266
    outer loop
      vertex 1 13.4659 10.7588
      vertex -1 13.366 11
      vertex 1 13.366 11
    endloop
  endfacet
  facet normal 0 0.923889 0.38266
    outer loop
      vertex -1 13.366 11
      vertex 1 13.4659 10.7588
      vertex -1 13.4659 10.7588
    endloop
  endfacet
  facet normal 0 0.79333 0.608792
    outer loop
      vertex 1 13.366 11
      vertex -1 13.2071 11.2071
      vertex 1 13.2071 11.2071
    endloop
  endfacet
  facet normal 0 0.79333 0.608792
    outer loop
      vertex -1 13.2071 11.2071
      vertex 1 13.366 11
      vertex -1 13.366 11
    endloop
  endfacet
  facet normal 0 0.38266 -0.923889
    outer loop
      vertex -1 12.7588 -13.4659
      vertex 1 13 -13.366
      vertex 1 12.7588 -13.4659
    endloop
  endfacet
  facet normal 0 0.38266 -0.923889
    outer loop
      vertex 1 13 -13.366
      vertex -1 12.7588 -13.4659
      vertex -1 13 -13.366
    endloop
  endfacet
  facet normal 0 1 -0
    outer loop
      vertex 1 13.5 -12.5
      vertex -1 13.5 10.5
      vertex 1 13.5 10.5
    endloop
  endfacet
  facet normal 0 1 0
    outer loop
      vertex -1 13.5 10.5
      vertex 1 13.5 -12.5
      vertex -1 13.5 -12.5
    endloop
  endfacet
  facet normal 0 -1 0
    outer loop
      vertex -1 11.5 -11.5
      vertex 1 11.5 9.5
      vertex -1 11.5 9.5
    endloop
  endfacet
  facet normal 0 -1 -0
    outer loop
      vertex 1 11.5 9.5
      vertex -1 11.5 -11.5
      vertex 1 11.5 -11.5
    endloop
  endfacet
  facet normal 0 0.79333 -0.608792
    outer loop
      vertex 1 13.2071 -13.2071
      vertex -1 13.366 -13
      vertex 1 13.366 -13
    endloop
  endfacet
  facet normal 0 0.79333 -0.608792
    outer loop
      vertex -1 13.366 -13
      vertex 1 13.2071 -13.2071
      vertex -1 13.2071 -13.2071
    endloop
  endfacet
  facet normal 0 0.991437 -0.130586
    outer loop
      vertex 1 13.4659 -12.7588
      vertex -1 13.5 -12.5
      vertex 1 13.5 -12.5
    endloop
  endfacet
  facet normal 0 0.991437 -0.130586
    outer loop
      vertex -1 13.5 -12.5
      vertex 1 13.4659 -12.7588
      vertex -1 13.4659 -12.7588
    endloop
  endfacet
  facet normal 0 0.923889 -0.38266
    outer loop
      vertex 1 13.366 -13
      vertex -1 13.4659 -12.7588
      vertex 1 13.4659 -12.7588
    endloop
  endfacet
  facet normal 0 0.923889 -0.38266
    outer loop
      vertex -1 13.4659 -12.7588
      vertex 1 13.366 -13
      vertex -1 13.366 -13
    endloop
  endfacet
  facet normal 0 0.130586 -0.991437
    outer loop
      vertex -1 12.5 -13.5
      vertex 1 12.7588 -13.4659
      vertex 1 12.5 -13.5
    endloop
  endfacet
  facet normal 0 0.130586 -0.991437
    outer loop
      vertex 1 12.7588 -13.4659
      vertex -1 12.5 -13.5
      vertex -1 12.7588 -13.4659
    endloop
  endfacet
  facet normal 0 0.608792 -0.79333
    outer loop
      vertex -1 13 -13.366
      vertex 1 13.2071 -13.2071
      vertex 1 13 -13.366
    endloop
  endfacet
  facet normal 0 0.608792 -0.79333
    outer loop
      vertex 1 13.2071 -13.2071
      vertex -1 13 -13.366
      vertex -1 13.2071 -13.2071
    endloop
  endfacet
  facet normal 0 -0.608764 0.793351
    outer loop
      vertex -1 -13 -11.634
      vertex 1 -13.2071 -11.7929
      vertex 1 -13 -11.634
    endloop
  endfacet
  facet normal 0 -0.608764 0.793351
    outer loop
      vertex 1 -13.2071 -11.7929
      vertex -1 -13 -11.634
      vertex -1 -13.2071 -11.7929
    endloop
  endfacet
  facet normal 0 -0.130586 0.991437
    outer loop
      vertex -1 -12.5 -11.5
      vertex 1 -12.7588 -11.5341
      vertex 1 -12.5 -11.5
    endloop
  endfacet
  facet normal 0 -0.130586 0.991437
    outer loop
      vertex 1 -12.7588 -11.5341
      vertex -1 -12.5 -11.5
      vertex -1 -12.7588 -11.5341
    endloop
  endfacet
  facet normal 0 -0.38268 0.923881
    outer loop
      vertex -1 -12.7588 -11.5341
      vertex 1 -13 -11.634
      vertex 1 -12.7588 -11.5341
    endloop
  endfacet
  facet normal 0 -0.38268 0.923881
    outer loop
      vertex 1 -13 -11.634
      vertex -1 -12.7588 -11.5341
      vertex -1 -13 -11.634
    endloop
  endfacet
  facet normal -0 0 1
    outer loop
      vertex -1 11.5 -11.5
      vertex 1 -12.5 -11.5
      vertex 1 11.5 -11.5
    endloop
  endfacet
  facet normal 0 0 1
    outer loop
      vertex 1 -12.5 -11.5
      vertex -1 11.5 -11.5
      vertex -1 -12.5 -11.5
    endloop
  endfacet
  facet normal 0 0 -1
    outer loop
      vertex -1 -12.5 -13.5
      vertex 1 12.5 -13.5
      vertex 1 -12.5 -13.5
    endloop
  endfacet
  facet normal -0 0 -1
    outer loop
      vertex 1 12.5 -13.5
      vertex -1 -12.5 -13.5
      vertex -1 12.5 -13.5
    endloop
  endfacet
  facet normal 0 -0.991437 0.130586
    outer loop
      vertex -1 -13.5 -12.5
      vertex 1 -13.4659 -12.2412
      vertex -1 -13.4659 -12.2412
    endloop
  endfacet
  facet normal 0 -0.991437 0.130586
    outer loop
      vertex 1 -13.4659 -12.2412
      vertex -1 -13.5 -12.5
      vertex 1 -13.5 -12.5
    endloop
  endfacet
  facet normal 0 -0.991437 -0.130586
    outer loop
      vertex -1 -13.4659 -12.7588
      vertex 1 -13.5 -12.5
      vertex -1 -13.5 -12.5
    endloop
  endfacet
  facet normal 0 -0.991437 -0.130586
    outer loop
      vertex 1 -13.5 -12.5
      vertex -1 -13.4659 -12.7588
      vertex 1 -13.4659 -12.7588
    endloop
  endfacet
  facet normal 0 -0.79333 0.608792
    outer loop
      vertex -1 -13.366 -12
      vertex 1 -13.2071 -11.7929
      vertex -1 -13.2071 -11.7929
    endloop
  endfacet
  facet normal 0 -0.79333 0.608792
    outer loop
      vertex 1 -13.2071 -11.7929
      vertex -1 -13.366 -12
      vertex 1 -13.366 -12
    endloop
  endfacet
  facet normal 0 -0.38266 -0.923889
    outer loop
      vertex -1 -13 -13.366
      vertex 1 -12.7588 -13.4659
      vertex 1 -13 -13.366
    endloop
  endfacet
  facet normal -0 -0.38266 -0.923889
    outer loop
      vertex 1 -12.7588 -13.4659
      vertex -1 -13 -13.366
      vertex -1 -12.7588 -13.4659
    endloop
  endfacet
  facet normal 0 -0.79333 -0.608792
    outer loop
      vertex -1 -13.2071 -13.2071
      vertex 1 -13.366 -13
      vertex -1 -13.366 -13
    endloop
  endfacet
  facet normal 0 -0.79333 -0.608792
    outer loop
      vertex 1 -13.366 -13
      vertex -1 -13.2071 -13.2071
      vertex 1 -13.2071 -13.2071
    endloop
  endfacet
  facet normal 0 -0.130586 -0.991437
    outer loop
      vertex -1 -12.7588 -13.4659
      vertex 1 -12.5 -13.5
      vertex 1 -12.7588 -13.4659
    endloop
  endfacet
  facet normal -0 -0.130586 -0.991437
    outer loop
      vertex 1 -12.5 -13.5
      vertex -1 -12.7588 -13.4659
      vertex -1 -12.5 -13.5
    endloop
  endfacet
  facet normal 0 -0.923889 -0.38266
    outer loop
      vertex -1 -13.366 -13
      vertex 1 -13.4659 -12.7588
      vertex -1 -13.4659 -12.7588
    endloop
  endfacet
  facet normal 0 -0.923889 -0.38266
    outer loop
      vertex 1 -13.4659 -12.7588
      vertex -1 -13.366 -13
      vertex 1 -13.366 -13
    endloop
  endfacet
  facet normal 0 -0.923889 0.38266
    outer loop
      vertex -1 -13.4659 -12.2412
      vertex 1 -13.366 -12
      vertex -1 -13.366 -12
    endloop
  endfacet
  facet normal 0 -0.923889 0.38266
    outer loop
      vertex 1 -13.366 -12
      vertex -1 -13.4659 -12.2412
      vertex 1 -13.4659 -12.2412
    endloop
  endfacet
  facet normal 0 -0.608792 -0.79333
    outer loop
      vertex -1 -13.2071 -13.2071
      vertex 1 -13 -13.366
      vertex 1 -13.2071 -13.2071
    endloop
  endfacet
  facet normal -0 -0.608792 -0.79333
    outer loop
      vertex 1 -13 -13.366
      vertex -1 -13.2071 -13.2071
      vertex -1 -13 -13.366
    endloop
  endfacet
endsolid OpenSCAD_Model
